<svg width="25" height="25" viewBox="0 0 25 25" fill="none" xmlns="http://www.w3.org/2000/svg">
<path d="M5.46876 20.3125H19.5313C19.8282 20.3126 20.114 20.4254 20.3309 20.6281C20.5479 20.8308 20.6798 21.1083 20.7 21.4045C20.7203 21.7007 20.6273 21.9936 20.44 22.2239C20.2526 22.4542 19.9848 22.6048 19.6906 22.6453L19.5313 22.6562H5.46876C5.17185 22.6562 4.88604 22.5434 4.66908 22.3407C4.45213 22.138 4.32021 21.8605 4.29997 21.5642C4.27973 21.268 4.37269 20.9752 4.56006 20.7448C4.74743 20.5145 5.01524 20.3639 5.30938 20.3234L5.46876 20.3125H19.5313H5.46876ZM12.3406 1.57344L12.5 1.5625C12.7832 1.56251 13.0568 1.66507 13.2702 1.8512C13.4836 2.03733 13.6224 2.29445 13.6609 2.575L13.6719 2.73438V14.7469L17.1953 11.225C17.394 11.0264 17.6575 10.9057 17.9377 10.8851C18.2179 10.8644 18.4962 10.9451 18.7219 11.1125L18.8531 11.225C19.0518 11.4237 19.1724 11.6872 19.1931 11.9674C19.2137 12.2476 19.133 12.5259 18.9656 12.7516L18.8531 12.8828L13.3281 18.4062C13.1297 18.6047 12.8667 18.7254 12.5868 18.7463C12.3069 18.7672 12.0289 18.6871 11.8031 18.5203L11.6719 18.4062L6.14688 12.8828C5.93721 12.6737 5.81447 12.393 5.80334 12.0971C5.79221 11.8012 5.89352 11.512 6.0869 11.2877C6.28028 11.0635 6.55139 10.9208 6.84573 10.8882C7.14006 10.8557 7.43578 10.9359 7.67345 11.1125L7.8047 11.225L11.3281 14.75V2.73438C11.3281 2.45119 11.4307 2.17759 11.6168 1.96417C11.803 1.75075 12.0601 1.61195 12.3406 1.57344L12.5 1.5625L12.3406 1.57344Z" fill="white"/>
</svg>
