<svg width="42" height="42" viewBox="0 0 42 42" fill="none" xmlns="http://www.w3.org/2000/svg">
<path d="M21 42C32.598 42 42 32.598 42 21C42 9.40202 32.598 0 21 0C9.40202 0 0 9.40202 0 21C0 32.598 9.40202 42 21 42Z" fill="#4D76A1"/>
<path fill-rule="evenodd" clip-rule="evenodd" d="M20.2068 30.2104H21.855C21.855 30.2104 22.3529 30.1557 22.6071 29.8817C22.841 29.6301 22.8335 29.1577 22.8335 29.1577C22.8335 29.1577 22.8014 26.9461 23.8278 26.6204C24.8397 26.2996 26.139 28.7579 27.5162 29.7031C28.5577 30.4185 29.349 30.2616 29.349 30.2616L33.0314 30.2104C33.0314 30.2104 34.9578 30.0917 34.0444 28.5771C33.9696 28.4532 33.5125 27.4567 31.3065 25.409C28.9975 23.2659 29.3067 23.6125 32.0881 19.9054C33.782 17.6477 34.4592 16.2694 34.2477 15.679C34.0459 15.1168 32.8001 15.2654 32.8001 15.2654L28.6539 15.2912C28.6539 15.2912 28.3465 15.2493 28.1185 15.3856C27.8958 15.5192 27.7524 15.8307 27.7524 15.8307C27.7524 15.8307 27.0962 17.5777 26.221 19.0635C24.3747 22.1986 23.6365 22.3641 23.3348 22.1694C22.6329 21.7157 22.8081 20.3468 22.8081 19.3742C22.8081 16.336 23.2689 15.0692 21.9108 14.7413C21.4601 14.6324 21.1284 14.5605 19.9758 14.5489C18.4964 14.5336 17.2442 14.5534 16.5352 14.9008C16.0635 15.1318 15.6997 15.6465 15.9213 15.6761C16.1953 15.7127 16.8159 15.8434 17.145 16.2915C17.5699 16.8695 17.5549 18.1677 17.5549 18.1677C17.5549 18.1677 17.799 21.7442 16.9848 22.1885C16.4259 22.4932 15.6592 21.8711 14.0132 19.0268C13.1698 17.5699 12.5331 15.9594 12.5331 15.9594C12.5331 15.9594 12.4103 15.6585 12.1913 15.4975C11.9255 15.3025 11.5542 15.2403 11.5542 15.2403L7.61418 15.2661C7.61418 15.2661 7.02271 15.2826 6.80559 15.5398C6.61243 15.7685 6.79025 16.2417 6.79025 16.2417C6.79025 16.2417 9.87485 23.4583 13.3675 27.0951C16.57 30.4294 20.2068 30.2104 20.2068 30.2104Z" fill="white"/>
</svg>
